<?xml version="1.0" encoding="UTF-8" standalone="no"?>
<!-- Created with Inkscape (http://www.inkscape.org/) -->

<svg
   width="169.33333mm"
   height="64.728195mm"
   viewBox="0 0 169.33333 64.728195"
   version="1.1"
   id="svg5"
   sodipodi:docname="logo-white.svg"
   inkscape:version="1.2.2 (b0a8486, 2022-12-01)"
   xmlns:inkscape="http://www.inkscape.org/namespaces/inkscape"
   xmlns:sodipodi="http://sodipodi.sourceforge.net/DTD/sodipodi-0.dtd"
   xmlns="http://www.w3.org/2000/svg"
   xmlns:svg="http://www.w3.org/2000/svg">
  <sodipodi:namedview
     id="namedview7"
     pagecolor="#ffffff"
     bordercolor="#000000"
     borderopacity="0.25"
     inkscape:showpageshadow="2"
     inkscape:pageopacity="0.0"
     inkscape:pagecheckerboard="0"
     inkscape:deskcolor="#d1d1d1"
     inkscape:document-units="mm"
     showgrid="false"
     inkscape:zoom="1.5696475"
     inkscape:cx="369.50971"
     inkscape:cy="139.20323"
     inkscape:window-width="1440"
     inkscape:window-height="769"
     inkscape:window-x="0"
     inkscape:window-y="25"
     inkscape:window-maximized="0"
     inkscape:current-layer="g5215" />
  <defs
     id="defs2" />
  <g
     inkscape:label="Layer 1"
     inkscape:groupmode="layer"
     id="layer1"
     transform="translate(-16.001892,-14.020319)">
    <g
       id="g5215"
       transform="matrix(5.6745838,0,0,5.6745838,-305.60131,-447.8727)"
       style="stroke-width:0.176224">
      <g
         id="g6969"
         style="fill:#ffffff;fill-opacity:1;stroke:#ffffff;stroke-opacity:1">
        <g
           aria-label="Upforce"
           id="text324"
           style="font-size:12.3472px;font-family:Gloock;-inkscape-font-specification:'Gloock, Normal';letter-spacing:-0.79375px;fill:#ffffff;fill-opacity:1;stroke:#ffffff;stroke-width:0;stroke-linecap:round;stroke-miterlimit:20.5;stroke-opacity:1"
           transform="matrix(0.49803921,0,0,0.46487221,24.324414,40.186034)">
          <g
             id="path5217"
             style="stroke-width:0;fill:#ffffff;fill-opacity:1;stroke:#ffffff;stroke-opacity:1">
            <path
               style="color:#000000;-inkscape-font-specification:'Gloock, Normal';stroke:#ffffff;stroke-width:0;stroke-linecap:butt;-inkscape-stroke:none;fill:#ffffff;fill-opacity:1;stroke-opacity:1"
               d="m 79.322655,103.35972 q -1.086554,0 -1.889122,-0.4198 -0.802568,-0.41981 -1.247067,-1.18534 -0.432152,-0.77787 -0.432152,-1.815035 v -4.901838 q 0,-0.444499 -0.271639,-0.716138 -0.271638,-0.271638 -0.716137,-0.271638 h -0.04939 v -0.123472 h 3.975798 v 0.123472 h -0.03704 q -0.444499,0 -0.716138,0.271638 -0.271638,0.271639 -0.271638,0.716138 v 4.901838 q 0,1.308805 0.666749,2.074335 0.679096,0.75317 1.827385,0.75317 1.160637,0 1.827386,-0.76552 0.666749,-0.77788 0.666749,-2.061985 v -4.71663 q 0,-0.53093 -0.321027,-0.83961 -0.321028,-0.30868 -0.851957,-0.333374 v -0.123472 h 2.55587 v 0.123472 q -0.530929,0.02469 -0.851957,0.333374 -0.321027,0.30868 -0.321027,0.83961 v 4.71663 q 0,1.037165 -0.432152,1.802695 -0.419805,0.76552 -1.222373,1.19768 -0.790221,0.4198 -1.889121,0.4198 z"
               id="path5503" />
            <path
               style="color:#000000;-inkscape-font-specification:'Gloock, Normal';fill-opacity:1;stroke:#ffffff;stroke-width:0;stroke-linecap:butt;-inkscape-stroke:none;fill:#ffffff;stroke-opacity:1"
               d="m 79.322655,103.35972 c -0.724369,0 -1.354077,-0.13993 -1.889122,-0.4198 -0.535045,-0.27987 -0.950735,-0.67499 -1.247067,-1.18534 -0.288101,-0.51858 -0.432152,-1.12359 -0.432152,-1.815035 v -4.901838 c 0,-0.296332 -0.09055,-0.535046 -0.271639,-0.716138 -0.181092,-0.181092 -0.419805,-0.271638 -0.716137,-0.271638 h -0.04939 v -0.123472 h 3.975798 v 0.123472 h -0.03704 c -0.296332,0 -0.535046,0.09055 -0.716138,0.271638 -0.181092,0.181092 -0.271638,0.419806 -0.271638,0.716138 v 4.901838 c 0,0.872535 0.22225,1.563985 0.666749,2.074335 0.45273,0.50211 1.06186,0.75317 1.827385,0.75317 0.773757,0 1.382887,-0.25517 1.827386,-0.76552 0.444499,-0.51859 0.666749,-1.20592 0.666749,-2.061985 v -4.71663 c 0,-0.353953 -0.107009,-0.633824 -0.321027,-0.83961 -0.214018,-0.205786 -0.498005,-0.316911 -0.851957,-0.333374 v -0.123472 h 2.55587 v 0.123472 c -0.353952,0.01646 -0.637939,0.127585 -0.851957,0.333374 -0.214018,0.205786 -0.321027,0.485657 -0.321027,0.83961 v 4.71663 c 0,0.691445 -0.144051,1.292345 -0.432152,1.802695 -0.27987,0.51035 -0.687328,0.90957 -1.222373,1.19768 -0.526813,0.27987 -1.156522,0.4198 -1.889121,0.4198 z"
               id="path5500" />
          </g>
          <g
             id="path5219"
             style="stroke-width:0;fill:#ffffff;fill-opacity:1;stroke:#ffffff;stroke-opacity:1">
            <path
               style="color:#000000;-inkscape-font-specification:'Gloock, Normal';stroke:#ffffff;stroke-width:0;stroke-linecap:butt;-inkscape-stroke:none;fill:#ffffff;fill-opacity:1;stroke-opacity:1"
               d="m 82.689889,105.77977 v -0.12347 h 0.01235 q 0.444499,0 0.716137,-0.27164 0.271639,-0.27164 0.271639,-0.71614 v -6.642791 q -0.01235,-0.543276 -0.234597,-0.765526 -0.22225,-0.22225 -0.765527,-0.22225 v -0.123472 h 1.222373 q 0.728485,0 1.000123,-0.135819 0.271639,-0.135819 0.395111,-0.333374 h 0.123472 l 0.01235,1.580441 q 0.283986,-0.555624 0.864304,-0.92604 0.580318,-0.370416 1.222373,-0.370416 0.691443,0 1.222373,0.419805 0.530929,0.419805 0.827262,1.14829 0.30868,0.716137 0.30868,1.654525 0,1.037167 -0.370416,1.802687 -0.370416,0.76553 -1.049512,1.18534 -0.666749,0.4198 -1.592789,0.4198 -0.506235,0 -0.827262,-0.16051 -0.321027,-0.14817 -0.580319,-0.50624 v 1.97555 q 0,0.4445 0.271639,0.71614 0.271638,0.27164 0.716137,0.27164 h 0.01235 v 0.12347 z m 3.92641,-2.62995 q 0.666749,0 1.01247,-0.82726 0.333375,-0.83961 0.333375,-2.407709 0,-2.69169 -1.086554,-2.69169 -0.419805,0 -0.827262,0.333375 -0.407458,0.333374 -0.580319,0.814915 v 2.876899 q 0,0.889 0.30868,1.39523 0.30868,0.50624 0.83961,0.50624 z"
               id="path5497" />
            <path
               style="color:#000000;-inkscape-font-specification:'Gloock, Normal';fill-opacity:1;stroke:#ffffff;stroke-width:0;stroke-linecap:butt;-inkscape-stroke:none;fill:#ffffff;stroke-opacity:1"
               d="m 82.689889,105.77977 v -0.12347 h 0.01235 c 0.296332,0 0.535045,-0.0906 0.716137,-0.27164 0.181092,-0.18109 0.271639,-0.41981 0.271639,-0.71614 v -6.642791 c -0.0082,-0.362184 -0.08643,-0.617359 -0.234597,-0.765526 -0.148167,-0.148167 -0.403343,-0.22225 -0.765527,-0.22225 v -0.123472 h 1.222373 c 0.485656,0 0.819031,-0.04527 1.000123,-0.135819 0.181092,-0.09055 0.312796,-0.201671 0.395111,-0.333374 h 0.123472 l 0.01235,1.580441 c 0.189324,-0.370416 0.477426,-0.679096 0.864304,-0.92604 0.386878,-0.246944 0.794337,-0.370416 1.222373,-0.370416 0.460962,0 0.86842,0.139935 1.222373,0.419805 0.353952,0.27987 0.629707,0.662634 0.827262,1.14829 0.205786,0.477424 0.30868,1.028934 0.30868,1.654525 0,0.691447 -0.123472,1.292337 -0.370416,1.802687 -0.246944,0.51035 -0.596782,0.90547 -1.049512,1.18534 -0.444499,0.27987 -0.97543,0.4198 -1.592789,0.4198 -0.33749,0 -0.613244,-0.0535 -0.827262,-0.16051 -0.214018,-0.0988 -0.407458,-0.26753 -0.580319,-0.50624 v 1.97555 c 0,0.29633 0.09055,0.53505 0.271639,0.71614 0.181092,0.18109 0.419805,0.27164 0.716137,0.27164 h 0.01235 v 0.12347 z m 3.92641,-2.62995 c 0.444499,0 0.78199,-0.27575 1.01247,-0.82726 0.22225,-0.55974 0.333375,-1.36231 0.333375,-2.407709 0,-1.794458 -0.362185,-2.69169 -1.086554,-2.69169 -0.27987,0 -0.555624,0.111125 -0.827262,0.333375 -0.271638,0.222249 -0.465078,0.493888 -0.580319,0.814915 v 2.876899 c 0,0.59267 0.102894,1.05774 0.30868,1.39523 0.205786,0.33749 0.485657,0.50624 0.83961,0.50624 z"
               id="path5494" />
          </g>
          <g
             id="path5221"
             style="stroke-width:0;fill:#ffffff;fill-opacity:1;stroke:#ffffff;stroke-opacity:1">
            <path
               style="color:#000000;-inkscape-font-specification:'Gloock, Normal';stroke:#ffffff;stroke-width:0;stroke-linecap:butt;-inkscape-stroke:none;fill:#ffffff;fill-opacity:1;stroke-opacity:1"
               d="m 89.316778,103.18686 v -0.12347 q 0.444499,0 0.716138,-0.27164 0.283985,-0.27164 0.283985,-0.71614 v -4.938879 h -1.049512 l 0.123472,-0.22225 h 0.92604 v -0.283985 q 0,-0.938388 0.30868,-1.617484 0.321028,-0.691443 0.901346,-1.074206 0.580318,-0.382763 1.370539,-0.382763 0.543277,0 1.024818,0.172861 0.493888,0.160513 0.83961,0.456846 0.358068,0.283986 0.506235,0.666749 l -1.481664,0.839609 q -0.01235,-0.444499 -0.07408,-0.802568 -0.04939,-0.358068 -0.172861,-0.629707 -0.246944,-0.543277 -0.629708,-0.543277 -0.39511,0 -0.592665,0.605013 -0.22225,0.605013 -0.22225,1.654525 v 0.938387 h 1.666872 l -0.123472,0.22225 h -1.5434 v 4.938879 q 0,0.4445 0.333375,0.71614 0.345721,0.27164 0.901345,0.27164 h 0.01235 v 0.12347 z"
               id="path5491" />
            <path
               style="color:#000000;-inkscape-font-specification:'Gloock, Normal';fill-opacity:1;stroke:#ffffff;stroke-width:0;stroke-linecap:butt;-inkscape-stroke:none;fill:#ffffff;stroke-opacity:1"
               d="m 89.316778,103.18686 v -0.12347 c 0.296332,0 0.535046,-0.0905 0.716138,-0.27164 0.189323,-0.18109 0.283985,-0.41981 0.283985,-0.71614 v -4.938879 h -1.049512 l 0.123472,-0.22225 h 0.92604 v -0.283985 c 0,-0.625591 0.102894,-1.164754 0.30868,-1.617484 0.214018,-0.460962 0.514468,-0.819031 0.901346,-1.074206 0.386878,-0.255175 0.843726,-0.382763 1.370539,-0.382763 0.362184,0 0.703791,0.05762 1.024818,0.172861 0.329258,0.107009 0.609129,0.259291 0.83961,0.456846 0.238712,0.189324 0.407457,0.411574 0.506235,0.666749 l -1.481664,0.839609 c -0.0082,-0.296332 -0.03293,-0.563856 -0.07408,-0.802568 -0.03293,-0.238712 -0.09055,-0.448615 -0.172861,-0.629707 -0.164629,-0.362184 -0.374532,-0.543277 -0.629708,-0.543277 -0.263406,0 -0.460962,0.201671 -0.592665,0.605013 -0.148167,0.403342 -0.22225,0.954851 -0.22225,1.654525 v 0.938387 h 1.666872 l -0.123472,0.22225 h -1.5434 v 4.938879 c 0,0.29633 0.111125,0.53505 0.333375,0.71614 0.23048,0.18109 0.530929,0.27164 0.901345,0.27164 h 0.01235 v 0.12347 z"
               id="path5488" />
          </g>
          <g
             id="path5223"
             style="stroke-width:0;fill:#ffffff;fill-opacity:1;stroke:#ffffff;stroke-opacity:1">
            <path
               style="color:#000000;-inkscape-font-specification:'Gloock, Normal';stroke:#ffffff;stroke-width:0;stroke-linecap:butt;-inkscape-stroke:none;fill:#ffffff;fill-opacity:1;stroke-opacity:1"
               d="m 96.04245,103.35972 q -1.01247,0 -1.777997,-0.40746 -0.753179,-0.40746 -1.172984,-1.14829 -0.419805,-0.74083 -0.419805,-1.7533 0,-1.01247 0.419805,-1.753302 0.419805,-0.740832 1.172984,-1.14829 0.765527,-0.407457 1.777997,-0.407457 1.012471,0 1.76565,0.407457 0.753179,0.407458 1.172984,1.14829 0.419805,0.740832 0.419805,1.753302 0,1.01247 -0.419805,1.7533 -0.419805,0.74083 -1.172984,1.14829 -0.753179,0.40746 -1.76565,0.40746 z m -0.01235,-0.16051 q 0.432152,0 0.740832,-0.43216 0.30868,-0.43215 0.481541,-1.14829 0.172861,-0.72848 0.172861,-1.58044 0,-0.926037 -0.185208,-1.629827 -0.172861,-0.716138 -0.493888,-1.111248 -0.30868,-0.407458 -0.703791,-0.407458 -0.419805,0 -0.740832,0.432152 -0.30868,0.432152 -0.481541,1.14829 -0.17286,0.716137 -0.17286,1.568091 0,0.93839 0.185208,1.65453 0.185208,0.71614 0.493888,1.11125 0.321027,0.39511 0.70379,0.39511 z"
               id="path5485" />
            <path
               style="color:#000000;-inkscape-font-specification:'Gloock, Normal';fill-opacity:1;stroke:#ffffff;stroke-width:0;stroke-linecap:butt;-inkscape-stroke:none;fill:#ffffff;stroke-opacity:1"
               d="m 96.04245,103.35972 c -0.674979,0 -1.267646,-0.13582 -1.777997,-0.40746 -0.502119,-0.27164 -0.893114,-0.6544 -1.172984,-1.14829 -0.27987,-0.49389 -0.419805,-1.07832 -0.419805,-1.7533 0,-0.674979 0.139935,-1.259414 0.419805,-1.753302 0.27987,-0.493888 0.670865,-0.876652 1.172984,-1.14829 0.510351,-0.271638 1.103018,-0.407457 1.777997,-0.407457 0.67498,0 1.263531,0.135819 1.76565,0.407457 0.502119,0.271638 0.893114,0.654402 1.172984,1.14829 0.27987,0.493888 0.419805,1.078323 0.419805,1.753302 0,0.67498 -0.139935,1.25941 -0.419805,1.7533 -0.27987,0.49389 -0.670865,0.87665 -1.172984,1.14829 -0.502119,0.27164 -1.09067,0.40746 -1.76565,0.40746 z m -0.01235,-0.16051 c 0.288101,0 0.535046,-0.14405 0.740832,-0.43216 0.205786,-0.2881 0.3663,-0.67086 0.481541,-1.14829 0.115241,-0.48565 0.172861,-1.01247 0.172861,-1.58044 0,-0.617357 -0.06174,-1.160634 -0.185208,-1.629827 -0.115241,-0.477425 -0.27987,-0.847842 -0.493888,-1.111248 -0.205786,-0.271638 -0.440384,-0.407458 -0.703791,-0.407458 -0.27987,0 -0.526814,0.144051 -0.740832,0.432152 -0.205786,0.288101 -0.3663,0.670865 -0.481541,1.14829 -0.11524,0.477424 -0.17286,1.000122 -0.17286,1.568091 0,0.62559 0.06174,1.1771 0.185208,1.65453 0.123472,0.47743 0.288102,0.84784 0.493888,1.11125 0.214018,0.26341 0.448615,0.39511 0.70379,0.39511 z"
               id="path5482" />
          </g>
          <g
             id="path5225"
             style="stroke-width:0;fill:#ffffff;fill-opacity:1;stroke:#ffffff;stroke-opacity:1">
            <path
               style="color:#000000;-inkscape-font-specification:'Gloock, Normal';stroke:#ffffff;stroke-width:0;stroke-linecap:butt;-inkscape-stroke:none;fill:#ffffff;fill-opacity:1;stroke-opacity:1"
               d="m 98.779974,103.18686 v -0.12347 h 0.01235 q 0.444499,0 0.716138,-0.27164 0.271638,-0.27164 0.271638,-0.71614 v -4.049881 q 0,-0.469193 -0.197555,-0.728484 -0.185208,-0.259292 -0.802568,-0.259292 v -0.123472 h 1.222373 q 0.6544,0 0.98777,-0.123472 0.33338,-0.135819 0.4692,-0.345721 h 0.0617 l 0.0123,2.024941 q 0.16051,-0.370416 0.40746,-0.777874 0.25929,-0.407458 0.64205,-0.679096 0.39511,-0.283986 0.93839,-0.283986 0.18521,0 0.39511,0.03704 0.2099,0.03704 0.4445,0.135819 l -0.48154,1.444623 q -0.4445,-0.246944 -0.77788,-0.345722 -0.32102,-0.09878 -0.56797,-0.09878 -0.4198,0 -0.6297,0.259292 -0.19756,0.259291 -0.34573,0.61736 v 3.296705 q 0,0.4445 0.27164,0.71614 0.27164,0.27164 0.71614,0.27164 h 0.0124 v 0.12347 z"
               id="path5479" />
            <path
               style="color:#000000;-inkscape-font-specification:'Gloock, Normal';fill-opacity:1;stroke:#ffffff;stroke-width:0;stroke-linecap:butt;-inkscape-stroke:none;fill:#ffffff;stroke-opacity:1"
               d="m 98.779974,103.18686 v -0.12347 h 0.01235 c 0.296332,0 0.535046,-0.0905 0.716138,-0.27164 0.181092,-0.18109 0.271638,-0.41981 0.271638,-0.71614 v -4.049881 c 0,-0.312795 -0.06585,-0.555624 -0.197555,-0.728484 -0.123472,-0.172861 -0.390995,-0.259292 -0.802568,-0.259292 v -0.123472 h 1.222373 c 0.43627,0 0.76553,-0.04116 0.98777,-0.123472 0.22226,-0.09055 0.37866,-0.205786 0.4692,-0.345721 h 0.0617 l 0.0123,2.024941 c 0.10701,-0.246944 0.24283,-0.506236 0.40746,-0.777874 0.17286,-0.271638 0.38688,-0.498004 0.64205,-0.679096 0.26341,-0.189324 0.57621,-0.283986 0.93839,-0.283986 0.12348,0 0.25518,0.01235 0.39511,0.03704 0.13994,0.02469 0.2881,0.06997 0.4445,0.135819 l -0.48154,1.444623 c -0.29633,-0.164629 -0.55562,-0.27987 -0.77788,-0.345722 -0.21401,-0.06585 -0.40333,-0.09878 -0.56797,-0.09878 -0.27986,0 -0.48976,0.08643 -0.6297,0.259292 -0.1317,0.17286 -0.24695,0.378648 -0.34573,0.61736 v 3.296705 c 0,0.29633 0.0906,0.53504 0.27164,0.71614 0.1811,0.18109 0.41981,0.27164 0.71614,0.27164 h 0.0124 v 0.12347 z"
               id="path5476" />
          </g>
          <g
             id="path5227"
             style="stroke-width:0;fill:#ffffff;fill-opacity:1;stroke:#ffffff;stroke-opacity:1">
            <path
               style="color:#000000;-inkscape-font-specification:'Gloock, Normal';stroke:#ffffff;stroke-width:0;stroke-linecap:butt;-inkscape-stroke:none;fill:#ffffff;fill-opacity:1;stroke-opacity:1"
               d="m 106.54282,103.35972 q -0.83961,0 -1.49401,-0.40746 -0.6544,-0.4198 -1.02482,-1.16063 -0.35807,-0.74084 -0.35807,-1.69157 0,-0.987777 0.40746,-1.740956 0.40746,-0.765527 1.11125,-1.185331 0.71613,-0.432152 1.60513,-0.432152 1.03717,0 1.71626,0.567971 0.69145,0.555624 0.82727,1.518705 l -1.48167,0.827263 q 0,-1.259415 -0.32103,-2.000247 -0.32102,-0.728484 -0.90134,-0.728484 -0.39511,0 -0.69144,0.321027 -0.28399,0.321027 -0.4445,0.864304 -0.14817,0.543277 -0.14817,1.210025 0,0.851955 0.25929,1.506355 0.25929,0.64206 0.72849,1.01247 0.46919,0.35807 1.11124,0.35807 0.59267,0 1.1236,-0.29633 0.54328,-0.29633 0.889,-0.80257 l 0.12347,0.037 q -0.2099,0.66675 -0.66675,1.17299 -0.45685,0.49389 -1.07421,0.77787 -0.60501,0.27164 -1.29645,0.27164 z"
               id="path5473" />
            <path
               style="color:#000000;-inkscape-font-specification:'Gloock, Normal';fill-opacity:1;stroke:#ffffff;stroke-width:0;stroke-linecap:butt;-inkscape-stroke:none;fill:#ffffff;stroke-opacity:1"
               d="m 106.54282,103.35972 c -0.55974,0 -1.05774,-0.13582 -1.49401,-0.40746 -0.43627,-0.27987 -0.77787,-0.66674 -1.02482,-1.16063 -0.23871,-0.49389 -0.35807,-1.05775 -0.35807,-1.69157 0,-0.658517 0.13582,-1.238837 0.40746,-1.740956 0.27164,-0.510351 0.64206,-0.905462 1.11125,-1.185331 0.47742,-0.288101 1.01246,-0.432152 1.60513,-0.432152 0.69145,0 1.26353,0.189324 1.71626,0.567971 0.46097,0.370416 0.73672,0.876652 0.82727,1.518705 l -1.48167,0.827263 c 0,-0.839609 -0.10701,-1.506359 -0.32103,-2.000247 -0.21401,-0.485656 -0.51446,-0.728484 -0.90134,-0.728484 -0.26341,0 -0.49389,0.107009 -0.69144,0.321027 -0.18933,0.214018 -0.33749,0.50212 -0.4445,0.864304 -0.0988,0.362184 -0.14817,0.765527 -0.14817,1.210025 0,0.567969 0.0864,1.070085 0.25929,1.506355 0.17286,0.42804 0.41569,0.76553 0.72849,1.01247 0.31279,0.23871 0.68321,0.35807 1.11124,0.35807 0.39511,0 0.76965,-0.0988 1.1236,-0.29633 0.36219,-0.19755 0.65852,-0.46508 0.889,-0.80257 l 0.12347,0.037 c -0.13993,0.4445 -0.36218,0.8355 -0.66675,1.17299 -0.30457,0.32926 -0.66264,0.58855 -1.07421,0.77787 -0.40334,0.18109 -0.83549,0.27164 -1.29645,0.27164 z"
               id="path5470" />
          </g>
          <g
             id="path5229"
             style="stroke-width:0;fill:#ffffff;fill-opacity:1;stroke:#ffffff;stroke-opacity:1">
            <path
               style="color:#000000;-inkscape-font-specification:'Gloock, Normal';stroke:#ffffff;stroke-width:0;stroke-linecap:butt;-inkscape-stroke:none;fill:#ffffff;fill-opacity:1;stroke-opacity:1"
               d="m 112.0955,103.33503 q -0.85195,0 -1.5187,-0.41981 -0.65441,-0.4198 -1.02482,-1.16064 -0.37042,-0.75318 -0.37042,-1.71626 0,-0.987773 0.40746,-1.728605 0.40746,-0.740832 1.11125,-1.14829 0.71614,-0.419804 1.61748,-0.419804 0.75318,0 1.3335,0.296332 0.59266,0.296333 0.93839,0.83961 0.35807,0.53093 0.40745,1.23472 l 0.0123,0.185208 h -4.14866 v 0.06174 q 0,1.308799 0.58032,2.099019 0.58032,0.77787 1.55575,0.77787 0.59266,0 1.12359,-0.28398 0.54328,-0.29633 0.87665,-0.79022 l 0.11113,0.037 q -0.2099,0.62971 -0.6544,1.11125 -0.4445,0.48154 -1.04951,0.75318 -0.60502,0.27164 -1.30881,0.27164 z m -1.22237,-4.222747 h 2.50648 q 0,-0.975429 -0.32103,-1.580442 -0.30868,-0.605012 -0.87665,-0.605012 -0.54327,0 -0.90134,0.592665 -0.35807,0.592666 -0.40746,1.592789 z"
               id="path5467" />
            <path
               style="color:#000000;-inkscape-font-specification:'Gloock, Normal';fill-opacity:1;stroke:#ffffff;stroke-width:0;stroke-linecap:butt;-inkscape-stroke:none;fill:#ffffff;stroke-opacity:1"
               d="m 112.0955,103.33503 c -0.56797,0 -1.0742,-0.13994 -1.5187,-0.41981 -0.43627,-0.27987 -0.77788,-0.66675 -1.02482,-1.16064 -0.24695,-0.50212 -0.37042,-1.07421 -0.37042,-1.71626 0,-0.658515 0.13582,-1.234717 0.40746,-1.728605 0.27164,-0.493888 0.64206,-0.876652 1.11125,-1.14829 0.47743,-0.279869 1.01659,-0.419804 1.61748,-0.419804 0.50212,0 0.94662,0.09878 1.3335,0.296332 0.39511,0.197555 0.7079,0.477426 0.93839,0.83961 0.23871,0.353953 0.37453,0.765527 0.40745,1.23472 l 0.0123,0.185208 h -4.14866 v 0.06174 c 0,0.872539 0.19344,1.572209 0.58032,2.099019 0.38688,0.51858 0.90546,0.77787 1.55575,0.77787 0.39511,0 0.76964,-0.0947 1.12359,-0.28398 0.36219,-0.19755 0.6544,-0.46096 0.87665,-0.79022 l 0.11113,0.037 c -0.13993,0.41981 -0.35807,0.79023 -0.6544,1.11125 -0.29633,0.32103 -0.64617,0.57209 -1.04951,0.75318 -0.40335,0.1811 -0.83962,0.27164 -1.30881,0.27164 z m -1.22237,-4.222747 h 2.50648 c 0,-0.650285 -0.10701,-1.1771 -0.32103,-1.580442 -0.20579,-0.403341 -0.498,-0.605012 -0.87665,-0.605012 -0.36218,0 -0.66263,0.197555 -0.90134,0.592665 -0.23871,0.39511 -0.37453,0.926041 -0.40746,1.592789 z"
               id="path5464" />
          </g>
        </g>
        <path
           style="color:#000000;fill:#ffffff;stroke-width:0.176224;stroke-linecap:round;stroke-miterlimit:20.5;-inkscape-stroke:none;fill-opacity:1;stroke:#ffffff;stroke-opacity:1"
           d="m 71.441891,92.799777 c 0.101843,0.0019 0.20365,0.0023 0.305498,0.0037 -9.47e-4,-0.0014 -0.0019,-0.0023 -0.0028,-0.0037 z"
           id="path6900" />
        <path
           style="color:#000000;fill:#ffffff;stroke-width:0.176224;stroke-linecap:round;stroke-miterlimit:20.5;-inkscape-stroke:none;fill-opacity:1;stroke:#ffffff;stroke-opacity:1"
           d="m 56.674324,81.426515 v 0.04901 10.135521 h 4.940454 c 0.0109,-0.03268 0.02231,-0.06519 0.035,-0.09729 2.27e-4,-4.65e-4 5.48e-4,-9.3e-4 7.47e-4,-0.0019 h -4.871196 v -9.987361 h 29.629592 v 9.987538 H 81.81566 c 0.0035,0.02073 0.0054,0.04323 0.0054,0.0675 v 0.0317 h 4.693896 V 81.426752 Z"
           id="path5461" />
        <text
           xml:space="preserve"
           style="font-style:normal;font-variant:normal;font-weight:normal;font-stretch:normal;font-size:1.24336px;font-family:Arial;-inkscape-font-specification:'Arial, Normal';font-variant-ligatures:normal;font-variant-caps:normal;font-variant-numeric:normal;font-variant-east-asian:normal;letter-spacing:0.23313px;fill:#ffffff;fill-opacity:1;stroke:#ffffff;stroke-width:0.0373596;stroke-linecap:round;stroke-miterlimit:20.5;stroke-dasharray:none;stroke-opacity:1"
           x="68.732117"
           y="91.85289"
           id="text6910"><tspan
             sodipodi:role="line"
             id="tspan6908"
             style="font-style:normal;font-variant:normal;font-weight:normal;font-stretch:normal;font-size:1.24336px;font-family:Arial;-inkscape-font-specification:'Arial, Normal';font-variant-ligatures:normal;font-variant-caps:normal;font-variant-numeric:normal;font-variant-east-asian:normal;stroke-width:0.0373596;fill:#ffffff;fill-opacity:1;stroke:#ffffff;stroke-opacity:1"
             x="68.732117"
             y="91.85289">AFRICA</tspan></text>
      </g>
    </g>
  </g>
</svg>
