<?xml version="1.0" encoding="UTF-8" standalone="no"?>
<!-- Created with Inkscape (http://www.inkscape.org/) -->

<svg
   width="84.666664mm"
   height="39.378708mm"
   viewBox="0 0 84.666664 39.378708"
   version="1.1"
   id="svg33561"
   sodipodi:docname="upforce-white.svg"
   inkscape:version="1.2.2 (b0a8486, 2022-12-01)"
   xmlns:inkscape="http://www.inkscape.org/namespaces/inkscape"
   xmlns:sodipodi="http://sodipodi.sourceforge.net/DTD/sodipodi-0.dtd"
   xmlns="http://www.w3.org/2000/svg"
   xmlns:svg="http://www.w3.org/2000/svg">
  <sodipodi:namedview
     id="namedview33563"
     pagecolor="#ffffff"
     bordercolor="#000000"
     borderopacity="0.25"
     inkscape:showpageshadow="2"
     inkscape:pageopacity="0.0"
     inkscape:pagecheckerboard="0"
     inkscape:deskcolor="#d1d1d1"
     inkscape:document-units="mm"
     showgrid="false"
     inkscape:zoom="3.2625001"
     inkscape:cx="136.85824"
     inkscape:cy="77.701148"
     inkscape:window-width="1440"
     inkscape:window-height="769"
     inkscape:window-x="0"
     inkscape:window-y="25"
     inkscape:window-maximized="1"
     inkscape:current-layer="layer1" />
  <defs
     id="defs33558">
    <filter
       inkscape:label="Clouds"
       inkscape:menu="Overlays"
       inkscape:menu-tooltip="Airy, fluffy, sparse white clouds"
       style="color-interpolation-filters:sRGB;"
       id="filter34261"
       x="0"
       y="0"
       width="1"
       height="1">
      <feTurbulence
         numOctaves="3"
         baseFrequency="0.040 0.107"
         type="fractalNoise"
         id="feTurbulence34251" />
      <feColorMatrix
         result="result0"
         values="1 0 0 0 0 0 1 0 0 0 0 0 1 0 0 0 0 0 5 -2.7"
         id="feColorMatrix34253" />
      <feFlood
         flood-opacity="1"
         flood-color="rgb(255,255,255)"
         id="feFlood34255" />
      <feComposite
         operator="in"
         in2="result0"
         id="feComposite34257" />
      <feComposite
         operator="atop"
         in2="SourceGraphic"
         id="feComposite34259" />
    </filter>
  </defs>
  <g
     inkscape:label="Layer 1"
     inkscape:groupmode="layer"
     id="layer1"
     transform="translate(-53.739843,-71.961293)">
    <g
       id="g31912"
       transform="matrix(1.7935923,0,0,1.6752396,39.909565,-333.93697)"
       style="fill:#ffffff;fill-opacity:0.97872299;stroke-width:0;stroke-dasharray:none">
      <g
         aria-label="Upforce"
         id="text31900"
         style="font-size:14.1111px;font-family:Arial;-inkscape-font-specification:'Arial, Normal';letter-spacing:-0.968375px;fill:#ffffff;fill-opacity:0.97872299;stroke:#000000;stroke-width:0;stroke-linecap:round;stroke-miterlimit:20.5;stroke-dasharray:none">
        <g
           id="path33390"
           style="fill:#ffffff;fill-opacity:0.97872299;stroke-width:0;stroke-dasharray:none">
          <path
             style="color:#000000;-inkscape-font-specification:'Optima, Normal';fill:#ffffff;fill-opacity:0.97872299;stroke:none;stroke-width:0;stroke-linecap:butt;stroke-dasharray:none"
             d="m 17.878311,252.42256 q 0,-2.00378 -0.01411,-3.09033 -0.01411,-1.08656 -0.07055,-1.49578 0.155222,0.0282 0.296333,0.0564 0.141111,0.0141 0.282222,0.0141 0.183444,0 0.423333,-0.0706 -0.04233,0.49389 -0.08467,1.18533 -0.04233,0.67734 -0.07055,1.46756 -0.02822,0.77611 -0.05645,1.60866 -0.02822,0.81845 -0.04233,1.59456 -0.01411,0.94544 -0.296333,1.69333 -0.268111,0.74789 -0.776111,1.27 -0.507999,0.52211 -1.255888,0.79022 -0.733777,0.26811 -1.693332,0.26811 -2.116665,0 -3.07622,-0.95955 -0.959554,-0.95956 -0.959554,-3.03389 0,-0.66322 0.02822,-1.17122 0.04233,-0.52211 0.04233,-1.05833 0,-1.18533 -0.02822,-2.10256 -0.02822,-0.91722 -0.05644,-1.55222 0.169333,0.0282 0.366888,0.0564 0.197556,0.0141 0.366889,0.0141 0.155222,0 0.296333,-0.0141 0.155222,-0.0282 0.310444,-0.0564 -0.02822,0.31045 -0.05644,0.81845 -0.02822,0.49388 -0.05645,1.12888 -0.02822,0.635 -0.04233,1.36878 -0.01411,0.73378 -0.01411,1.524 0,0.47978 0.01411,1.00189 0.01411,0.508 0.09878,1.00189 0.08467,0.47977 0.268111,0.93133 0.197555,0.43744 0.550332,0.77611 0.352778,0.32455 0.889,0.52211 0.536222,0.18344 1.326443,0.18344 0.776111,0 1.298221,-0.22577 0.536222,-0.22578 0.874889,-0.59267 0.338666,-0.36689 0.52211,-0.84667 0.197556,-0.47977 0.282222,-1.00188 0.08467,-0.52211 0.09878,-1.04423 0.01411,-0.52211 0.01411,-0.95955 z"
             id="path33421" />
          <path
             style="color:#000000;-inkscape-font-specification:'Optima, Normal';fill:#ffffff;fill-opacity:0.97872299;stroke:none;stroke-width:0;stroke-linecap:butt;stroke-dasharray:none"
             d="m 17.878311,252.42256 c 0,-1.33585 -0.0047,-2.36596 -0.01411,-3.09033 -0.0094,-0.72437 -0.03292,-1.22297 -0.07055,-1.49578 0.103481,0.0188 0.202259,0.0376 0.296333,0.0564 0.09407,0.009 0.188148,0.0141 0.282222,0.0141 0.122296,0 0.263407,-0.0235 0.423333,-0.0706 -0.02822,0.32926 -0.05644,0.72437 -0.08467,1.18533 -0.02822,0.45156 -0.05174,0.94075 -0.07055,1.46756 -0.01881,0.51741 -0.03763,1.05363 -0.05645,1.60866 -0.01881,0.54563 -0.03292,1.07715 -0.04233,1.59456 -0.0094,0.63029 -0.108185,1.19474 -0.296333,1.69333 -0.17874,0.49859 -0.437445,0.92193 -0.776111,1.27 -0.338666,0.34807 -0.757296,0.61148 -1.255888,0.79022 -0.489184,0.17874 -1.053629,0.26811 -1.693332,0.26811 -1.411109,0 -2.436517,-0.31985 -3.07622,-0.95955 -0.639702,-0.63971 -0.959554,-1.651 -0.959554,-3.03389 0,-0.44215 0.0094,-0.83255 0.02822,-1.17122 0.02822,-0.34807 0.04233,-0.70085 0.04233,-1.05833 0,-0.79022 -0.0094,-1.49107 -0.02822,-2.10256 -0.01881,-0.61148 -0.03763,-1.12889 -0.05644,-1.55222 0.112889,0.0188 0.235185,0.0376 0.366888,0.0564 0.131704,0.009 0.254,0.0141 0.366889,0.0141 0.103481,0 0.202259,-0.005 0.296333,-0.0141 l 0.310444,-0.0564 c -0.01881,0.20697 -0.03763,0.47978 -0.05644,0.81845 -0.01881,0.32925 -0.03763,0.70555 -0.05645,1.12888 -0.01881,0.42333 -0.03292,0.87959 -0.04233,1.36878 -0.0094,0.48919 -0.01411,0.99719 -0.01411,1.524 0,0.31985 0.0047,0.65382 0.01411,1.00189 0.0094,0.33867 0.04233,0.67263 0.09878,1.00189 0.05645,0.31985 0.145817,0.63029 0.268111,0.93133 0.131703,0.29163 0.315148,0.55033 0.550332,0.77611 0.235185,0.21637 0.531519,0.3904 0.889,0.52211 0.357481,0.12229 0.79963,0.18344 1.326443,0.18344 0.517407,0 0.950148,-0.0753 1.298221,-0.22577 0.357481,-0.15052 0.649111,-0.34808 0.874889,-0.59267 0.225777,-0.24459 0.399814,-0.52682 0.52211,-0.84667 0.131704,-0.31985 0.225778,-0.65381 0.282222,-1.00188 0.05645,-0.34807 0.08937,-0.69615 0.09878,-1.04423 0.0094,-0.34807 0.01411,-0.66792 0.01411,-0.95955 z"
             id="path33423" />
        </g>
        <g
           id="path33392"
           style="fill:#ffffff;fill-opacity:0.97872299;stroke-width:0;stroke-dasharray:none">
          <path
             style="color:#000000;-inkscape-font-specification:'Optima, Normal';fill:#ffffff;fill-opacity:0.97872299;stroke:none;stroke-width:0;stroke-linecap:butt;stroke-dasharray:none"
             d="m 20.070821,254.93434 q 0,-0.47978 -0.01411,-1.04423 0,-0.56444 -0.01411,-1.11477 -0.01411,-0.56445 -0.04233,-1.07245 -0.01411,-0.508 -0.04233,-0.87488 0.395111,0.0705 0.635,0.0705 0.239889,0 0.634999,-0.0705 -0.05644,0.36688 -0.08467,0.70555 -0.02822,0.33867 -0.02822,0.67733 h 0.02822 q 0.09878,-0.22577 0.282222,-0.47977 0.183444,-0.26811 0.465666,-0.49389 0.296333,-0.23989 0.705555,-0.39511 0.409222,-0.15523 0.931333,-0.15523 0.536222,0 1.058332,0.21167 0.522111,0.19756 0.917222,0.62089 0.409222,0.42333 0.64911,1.08655 0.254,0.64912 0.254,1.55223 0,0.90311 -0.268111,1.56633 -0.268111,0.66322 -0.705555,1.10066 -0.423333,0.43745 -0.973666,0.64911 -0.550332,0.19756 -1.100665,0.19756 -1.552221,0 -2.215443,-1.34056 h -0.02822 v 0.889 q 0,0.45156 0,1.00189 0.01411,0.56445 0.02822,1.11478 0.01411,0.55033 0.02822,1.04422 0.02822,0.508 0.05644,0.86078 -0.39511,-0.0706 -0.634999,-0.0706 -0.239889,0 -0.635,0.0706 0.02822,-0.35278 0.04233,-0.86078 0.02822,-0.49389 0.04233,-1.04422 0.01411,-0.55033 0.01411,-1.11478 0.01411,-0.55033 0.01411,-1.00189 z m 5.094107,-0.79023 q 0,-0.84666 -0.183444,-1.39699 -0.169333,-0.55034 -0.451555,-0.87489 -0.268111,-0.33867 -0.620888,-0.46567 -0.352778,-0.127 -0.691444,-0.127 -0.564444,0 -0.973666,0.23989 -0.395111,0.23989 -0.649111,0.64911 -0.254,0.39511 -0.366889,0.94544 -0.112888,0.53623 -0.112888,1.143 0,2.93511 2.06022,2.93511 0.508,0 0.874889,-0.22578 0.380999,-0.23988 0.620888,-0.64911 0.254,-0.42333 0.366889,-0.97366 0.126999,-0.56445 0.126999,-1.19945 z"
             id="path33427" />
          <path
             style="color:#000000;-inkscape-font-specification:'Optima, Normal';fill:#ffffff;fill-opacity:0.97872299;stroke:none;stroke-width:0;stroke-linecap:butt;stroke-dasharray:none"
             d="m 20.070821,254.93434 c 0,-0.31985 -0.0047,-0.66793 -0.01411,-1.04423 0,-0.37629 -0.0047,-0.74788 -0.01411,-1.11477 -0.0094,-0.3763 -0.02352,-0.73378 -0.04233,-1.07245 -0.0094,-0.33867 -0.02352,-0.63029 -0.04233,-0.87488 0.263407,0.047 0.475074,0.0705 0.635,0.0705 0.159926,0 0.371593,-0.0235 0.634999,-0.0705 -0.03763,0.24459 -0.06585,0.47977 -0.08467,0.70555 -0.01881,0.22578 -0.02822,0.45156 -0.02822,0.67733 h 0.02822 c 0.06585,-0.15051 0.159927,-0.31044 0.282222,-0.47977 0.122296,-0.17874 0.277518,-0.34337 0.465666,-0.49389 0.197555,-0.15993 0.432741,-0.29163 0.705555,-0.39511 0.272814,-0.10349 0.583259,-0.15523 0.931333,-0.15523 0.357481,0 0.710259,0.0706 1.058332,0.21167 0.348074,0.13171 0.653815,0.33867 0.917222,0.62089 0.272814,0.28222 0.489185,0.6444 0.64911,1.08655 0.169333,0.43275 0.254,0.95016 0.254,1.55223 0,0.60207 -0.08937,1.12418 -0.268111,1.56633 -0.17874,0.44215 -0.413926,0.80903 -0.705555,1.10066 -0.282222,0.29163 -0.606778,0.508 -0.973666,0.64911 -0.366888,0.13171 -0.733777,0.19756 -1.100665,0.19756 -1.034813,0 -1.773295,-0.44685 -2.215443,-1.34056 h -0.02822 v 0.889 1.00189 c 0.0094,0.3763 0.01881,0.74789 0.02822,1.11478 0.0094,0.36689 0.01881,0.71496 0.02822,1.04422 0.01881,0.33867 0.03763,0.62559 0.05644,0.86078 -0.263406,-0.0471 -0.475073,-0.0706 -0.634999,-0.0706 -0.159926,0 -0.371593,0.0235 -0.635,0.0706 0.01881,-0.23519 0.03292,-0.52211 0.04233,-0.86078 0.01881,-0.32926 0.03292,-0.67733 0.04233,-1.04422 0.0094,-0.36689 0.01411,-0.73848 0.01411,-1.11478 0.0094,-0.36689 0.01411,-0.70085 0.01411,-1.00189 z m 5.094107,-0.79023 c 0,-0.56444 -0.06115,-1.0301 -0.183444,-1.39699 -0.112889,-0.36689 -0.263407,-0.65852 -0.451555,-0.87489 -0.17874,-0.22578 -0.385704,-0.381 -0.620888,-0.46567 -0.235185,-0.0847 -0.465667,-0.127 -0.691444,-0.127 -0.376296,0 -0.700852,0.08 -0.973666,0.23989 -0.263407,0.15993 -0.479778,0.3763 -0.649111,0.64911 -0.169333,0.26341 -0.29163,0.57855 -0.366889,0.94544 -0.07526,0.35749 -0.112888,0.73849 -0.112888,1.143 0,1.95674 0.686741,2.93511 2.06022,2.93511 0.338666,0 0.630297,-0.0753 0.874889,-0.22578 0.253999,-0.15992 0.460962,-0.37629 0.620888,-0.64911 0.169333,-0.28222 0.29163,-0.60677 0.366889,-0.97366 0.08467,-0.3763 0.126999,-0.77612 0.126999,-1.19945 z"
             id="path33429" />
        </g>
        <g
           id="path33394"
           style="fill:#ffffff;fill-opacity:0.97872299;stroke-width:0;stroke-dasharray:none">
          <path
             style="color:#000000;-inkscape-font-specification:'Optima, Normal';fill:#ffffff;fill-opacity:0.97872299;stroke:none;stroke-width:0;stroke-linecap:butt;stroke-dasharray:none"
             d="m 30.094989,248.06223 q -0.338666,-0.21167 -0.77611,-0.21167 -0.310444,0 -0.536222,0.127 -0.211666,0.11289 -0.352777,0.31045 -0.141111,0.18344 -0.211667,0.43744 -0.05644,0.254 -0.05644,0.53622 0,0.254 0.04233,0.73378 0.05644,0.47978 0.127,0.91722 0.366888,0 0.719666,0 0.366889,-0.0141 0.733777,-0.0141 -0.01411,0.0706 -0.02822,0.14111 0,0.0706 0,0.14111 0,0.0706 0,0.14111 0.01411,0.0706 0.02822,0.14112 -0.366888,-0.0141 -0.733777,-0.0282 -0.352778,-0.0141 -0.719666,-0.0141 0,1.53811 0,3.06211 0.01411,1.50989 0.05644,3.048 -0.155222,-0.0282 -0.310444,-0.0282 -0.155222,0 -0.296333,0 -0.296333,0 -0.620888,0.0282 0.09878,-1.53811 0.112888,-3.03389 0.01411,-1.50989 0.01411,-3.07622 -0.253999,0 -0.507999,0.0141 -0.254,0.0141 -0.508,0.0282 0.01411,-0.0706 0.01411,-0.14112 0.01411,-0.0705 0.01411,-0.14111 0,-0.0705 -0.01411,-0.14111 0,-0.0705 -0.01411,-0.14111 0.254,0 0.508,0.0141 0.268111,0 0.507999,0 0,-0.40922 0.08467,-0.889 0.08467,-0.47977 0.239889,-0.94544 0.169333,-0.46567 0.395111,-0.87489 0.225777,-0.42333 0.507999,-0.70555 0.254,-0.254 0.635,-0.45156 0.39511,-0.19755 0.804332,-0.19755 0.155222,0 0.282222,0.0423 -0.01411,0.28222 -0.04233,0.56444 -0.01411,0.28222 -0.01411,0.56445 l -0.08467,0.0423 z"
             id="path33433" />
          <path
             style="color:#000000;-inkscape-font-specification:'Optima, Normal';fill:#ffffff;fill-opacity:0.97872299;stroke:none;stroke-width:0;stroke-linecap:butt;stroke-dasharray:none"
             d="m 30.094989,248.06223 c -0.225777,-0.14111 -0.484481,-0.21167 -0.77611,-0.21167 -0.206962,0 -0.385703,0.0423 -0.536222,0.127 -0.141111,0.0753 -0.258703,0.17874 -0.352777,0.31045 -0.09407,0.12229 -0.16463,0.26811 -0.211667,0.43744 -0.03763,0.16933 -0.05644,0.34807 -0.05644,0.53622 0,0.16933 0.01411,0.41393 0.04233,0.73378 0.03763,0.31985 0.07996,0.62559 0.127,0.91722 h 0.719666 c 0.244592,-0.009 0.489185,-0.0141 0.733777,-0.0141 -0.0094,0.0471 -0.01881,0.0941 -0.02822,0.14111 v 0.14111 0.14111 c 0.0094,0.0471 0.01881,0.0941 0.02822,0.14112 l -0.733777,-0.0282 c -0.235185,-0.009 -0.475074,-0.0141 -0.719666,-0.0141 v 3.06211 c 0.0094,1.00659 0.02822,2.02259 0.05644,3.048 -0.103481,-0.0188 -0.206963,-0.0282 -0.310444,-0.0282 h -0.296333 c -0.197555,0 -0.404518,0.009 -0.620888,0.0282 0.06585,-1.02541 0.103483,-2.0367 0.112888,-3.03389 0.0094,-1.00659 0.01411,-2.032 0.01411,-3.07622 -0.169332,0 -0.338666,0.005 -0.507999,0.0141 l -0.508,0.0282 c 0.0094,-0.0471 0.01411,-0.0941 0.01411,-0.14112 0.0094,-0.047 0.01411,-0.094 0.01411,-0.14111 0,-0.047 -0.0047,-0.094 -0.01411,-0.14111 0,-0.047 -0.0047,-0.094 -0.01411,-0.14111 0.169333,0 0.338667,0.005 0.508,0.0141 h 0.507999 c 0,-0.27281 0.02822,-0.56915 0.08467,-0.889 0.05645,-0.31985 0.13641,-0.63499 0.239889,-0.94544 0.112889,-0.31045 0.244592,-0.60208 0.395111,-0.87489 0.150518,-0.28222 0.319851,-0.5174 0.507999,-0.70555 0.169333,-0.16933 0.381,-0.31985 0.635,-0.45156 0.263406,-0.1317 0.531518,-0.19755 0.804332,-0.19755 0.103481,0 0.197555,0.0141 0.282222,0.0423 -0.0094,0.18815 -0.02352,0.37629 -0.04233,0.56444 -0.0094,0.18815 -0.01411,0.3763 -0.01411,0.56445 l -0.08467,0.0423 z"
             id="path33435" />
        </g>
        <g
           id="path33396"
           style="fill:#ffffff;fill-opacity:0.97872299;stroke-width:0;stroke-dasharray:none">
          <path
             style="color:#000000;-inkscape-font-specification:'Optima, Normal';fill:#ffffff;fill-opacity:0.97872299;stroke:none;stroke-width:0;stroke-linecap:butt;stroke-dasharray:none"
             d="m 30.721168,254.20056 q 0,0.59266 0.09878,1.143 0.112889,0.55033 0.366889,0.98777 0.254,0.42334 0.677333,0.67734 0.423333,0.254 1.044221,0.254 0.620889,0 1.044222,-0.254 0.423333,-0.254 0.677332,-0.67734 0.254,-0.43744 0.352778,-0.98777 0.112889,-0.55034 0.112889,-1.143 0,-0.59267 -0.112889,-1.143 -0.09878,-0.55033 -0.352778,-0.97367 -0.253999,-0.43744 -0.677332,-0.69144 -0.423333,-0.254 -1.044222,-0.254 -0.620888,0 -1.044221,0.254 -0.423333,0.254 -0.677333,0.69144 -0.254,0.42334 -0.366889,0.97367 -0.09878,0.55033 -0.09878,1.143 z m -1.241777,0 q 0,-0.95956 0.296333,-1.62278 0.310444,-0.67733 0.804333,-1.08655 0.493888,-0.42334 1.100665,-0.60678 0.620889,-0.19756 1.227666,-0.19756 0.620889,0 1.227666,0.19756 0.606777,0.18344 1.100666,0.60678 0.493888,0.40922 0.790221,1.08655 0.310444,0.66322 0.310444,1.62278 0,0.95955 -0.310444,1.63689 -0.296333,0.66322 -0.790221,1.08655 -0.493889,0.40922 -1.100666,0.57856 -0.606777,0.16933 -1.227666,0.16933 -0.606777,0 -1.227666,-0.16933 -0.606777,-0.16934 -1.100665,-0.57856 -0.493889,-0.42333 -0.804333,-1.08655 -0.296333,-0.67734 -0.296333,-1.63689 z"
             id="path33439" />
          <path
             style="color:#000000;-inkscape-font-specification:'Optima, Normal';fill:#ffffff;fill-opacity:0.97872299;stroke:none;stroke-width:0;stroke-linecap:butt;stroke-dasharray:none"
             d="m 30.721168,254.20056 c 0,0.39511 0.03293,0.77611 0.09878,1.143 0.07526,0.36689 0.197556,0.69614 0.366889,0.98777 0.169333,0.28223 0.395111,0.50801 0.677333,0.67734 0.282222,0.16933 0.630296,0.254 1.044221,0.254 0.413926,0 0.762,-0.0847 1.044222,-0.254 0.282222,-0.16933 0.508,-0.39511 0.677332,-0.67734 0.169333,-0.29163 0.286926,-0.62088 0.352778,-0.98777 0.07526,-0.36689 0.112889,-0.74789 0.112889,-1.143 0,-0.39511 -0.03763,-0.77611 -0.112889,-1.143 -0.06585,-0.36689 -0.183446,-0.69144 -0.352778,-0.97367 -0.169332,-0.29163 -0.39511,-0.52211 -0.677332,-0.69144 -0.282222,-0.16933 -0.630296,-0.254 -1.044222,-0.254 -0.413925,0 -0.761999,0.0847 -1.044221,0.254 -0.282222,0.16933 -0.508,0.39981 -0.677333,0.69144 -0.169333,0.28223 -0.29163,0.60678 -0.366889,0.97367 -0.06585,0.36689 -0.09878,0.74789 -0.09878,1.143 z m -1.241777,0 c 0,-0.63971 0.09878,-1.18063 0.296333,-1.62278 0.206962,-0.45155 0.475074,-0.81374 0.804333,-1.08655 0.329258,-0.28223 0.696147,-0.48449 1.100665,-0.60678 0.413926,-0.13171 0.823148,-0.19756 1.227666,-0.19756 0.413926,0 0.823148,0.0658 1.227666,0.19756 0.404518,0.12229 0.771407,0.32455 1.100666,0.60678 0.329258,0.27281 0.592666,0.635 0.790221,1.08655 0.206962,0.44215 0.310444,0.98307 0.310444,1.62278 0,0.6397 -0.103482,1.18533 -0.310444,1.63689 -0.197555,0.44215 -0.460963,0.80433 -0.790221,1.08655 -0.329259,0.27281 -0.696148,0.46567 -1.100666,0.57856 -0.404518,0.11289 -0.81374,0.16933 -1.227666,0.16933 -0.404518,0 -0.81374,-0.0564 -1.227666,-0.16933 -0.404518,-0.11289 -0.771407,-0.30575 -1.100665,-0.57856 -0.329259,-0.28222 -0.597371,-0.6444 -0.804333,-1.08655 -0.197555,-0.45156 -0.296333,-0.99719 -0.296333,-1.63689 z"
             id="path33441" />
        </g>
        <g
           id="path33398"
           style="fill:#ffffff;fill-opacity:0.97872299;stroke-width:0;stroke-dasharray:none">
          <path
             style="color:#000000;-inkscape-font-specification:'Optima, Normal';fill:#ffffff;fill-opacity:0.97872299;stroke:none;stroke-width:0;stroke-linecap:butt;stroke-dasharray:none"
             d="m 40.166782,251.98512 q -0.07056,-0.0847 -0.282222,-0.15523 -0.197556,-0.0705 -0.409222,-0.0705 -0.338667,0 -0.606778,0.15522 -0.268111,0.15522 -0.451555,0.42333 -0.183444,0.254 -0.282222,0.62089 -0.09878,0.35278 -0.09878,0.762 v 1.55222 q 0,0.94545 0,1.45345 0.01411,0.49388 0.05644,0.80433 -0.282222,-0.0282 -0.564444,-0.0282 -0.310444,0 -0.592666,0.0282 0.04233,-0.47978 0.04233,-1.29822 0.01411,-0.83256 0.01411,-2.032 V 253.749 q 0,-0.55033 -0.01411,-1.27 0,-0.71966 -0.04233,-1.65099 0.155222,0.0282 0.296333,0.0564 0.141111,0.0141 0.296333,0.0141 0.127,0 0.268111,-0.0141 0.141111,-0.0282 0.296333,-0.0564 -0.05644,0.508 -0.07056,0.80433 0,0.29633 0,0.56444 l 0.02822,0.0141 q 0.832555,-1.524 1.862666,-1.524 0.127,0 0.211666,0.0141 0.09878,0.0141 0.239889,0.0705 -0.07056,0.16933 -0.08467,0.52211 -0.01411,0.33867 -0.01411,0.62089 l -0.09878,0.0706 z"
             id="path33445" />
          <path
             style="color:#000000;-inkscape-font-specification:'Optima, Normal';fill:#ffffff;fill-opacity:0.97872299;stroke:none;stroke-width:0;stroke-linecap:butt;stroke-dasharray:none"
             d="m 40.166782,251.98512 c -0.04704,-0.0565 -0.141114,-0.10821 -0.282222,-0.15523 -0.131704,-0.047 -0.268111,-0.0705 -0.409222,-0.0705 -0.225778,0 -0.428038,0.0517 -0.606778,0.15522 -0.17874,0.10348 -0.329259,0.24459 -0.451555,0.42333 -0.122296,0.16933 -0.21637,0.3763 -0.282222,0.62089 -0.06585,0.23519 -0.09878,0.48919 -0.09878,0.762 v 1.55222 1.45345 c 0.0094,0.32925 0.02822,0.59736 0.05644,0.80433 -0.188148,-0.0188 -0.376296,-0.0282 -0.564444,-0.0282 -0.206962,0 -0.404518,0.009 -0.592666,0.0282 0.02822,-0.31985 0.04233,-0.75259 0.04233,-1.29822 0.0094,-0.55504 0.01411,-1.23237 0.01411,-2.032 V 253.749 c 0,-0.36689 -0.0047,-0.79022 -0.01411,-1.27 0,-0.47977 -0.01411,-1.0301 -0.04233,-1.65099 0.103481,0.0188 0.202259,0.0376 0.296333,0.0564 0.09407,0.009 0.192852,0.0141 0.296333,0.0141 0.08467,0 0.174037,-0.005 0.268111,-0.0141 0.09407,-0.0188 0.192852,-0.0376 0.296333,-0.0564 -0.03763,0.33867 -0.06115,0.60678 -0.07056,0.80433 v 0.56444 l 0.02822,0.0141 c 0.555036,-1.016 1.175926,-1.524 1.862666,-1.524 0.08467,0 0.155222,0.005 0.211666,0.0141 0.06585,0.009 0.145816,0.0329 0.239889,0.0705 -0.04704,0.11289 -0.07526,0.28692 -0.08467,0.52211 -0.0094,0.22578 -0.01411,0.43274 -0.01411,0.62089 l -0.09878,0.0706 z"
             id="path33447" />
        </g>
        <g
           id="path33400"
           style="fill:#ffffff;fill-opacity:0.97872299;stroke-width:0;stroke-dasharray:none">
          <path
             style="color:#000000;-inkscape-font-specification:'Optima, Normal';fill:#ffffff;fill-opacity:0.97872299;stroke:none;stroke-width:0;stroke-linecap:butt;stroke-dasharray:none"
             d="m 40.016811,254.20056 q 0,-0.91722 0.310444,-1.58044 0.310444,-0.66323 0.804333,-1.08656 0.507999,-0.43744 1.15711,-0.635 0.649111,-0.21167 1.326444,-0.21167 0.77611,0 1.382887,0.19756 0.620889,0.18344 0.889,0.42333 -0.09878,0.21167 -0.183445,0.45156 -0.07055,0.22578 -0.127,0.47978 h -0.112888 q -0.09878,-0.18345 -0.268111,-0.36689 -0.169333,-0.19756 -0.409222,-0.35278 -0.225778,-0.16933 -0.508,-0.26811 -0.282222,-0.11289 -0.620888,-0.11289 -0.635,0 -1.100666,0.23989 -0.451555,0.22578 -0.747888,0.635 -0.282222,0.40922 -0.423333,0.97366 -0.127,0.55034 -0.127,1.19945 0,1.45344 0.620888,2.20133 0.620889,0.73378 1.820332,0.73378 0.282222,0 0.578555,-0.0706 0.296333,-0.0847 0.578555,-0.21167 0.282222,-0.14111 0.522111,-0.32455 0.254,-0.18345 0.437444,-0.39511 l 0.07056,0.0423 q -0.07056,0.33867 -0.08467,0.69145 -0.423333,0.33866 -1.058332,0.57855 -0.620889,0.23989 -1.298222,0.23989 -0.606777,0 -1.227665,-0.16933 -0.606778,-0.18345 -1.100666,-0.59267 -0.493889,-0.42333 -0.804333,-1.08655 -0.296333,-0.66323 -0.296333,-1.62278 z"
             id="path33451" />
          <path
             style="color:#000000;-inkscape-font-specification:'Optima, Normal';fill:#ffffff;fill-opacity:0.97872299;stroke:none;stroke-width:0;stroke-linecap:butt;stroke-dasharray:none"
             d="m 40.016811,254.20056 c 0,-0.61148 0.103482,-1.13829 0.310444,-1.58044 0.206962,-0.44215 0.475074,-0.80434 0.804333,-1.08656 0.338666,-0.29163 0.72437,-0.50329 1.15711,-0.635 0.43274,-0.14111 0.874889,-0.21167 1.326444,-0.21167 0.517406,0 0.978369,0.0658 1.382887,0.19756 0.413926,0.12229 0.71026,0.2634 0.889,0.42333 -0.06585,0.14111 -0.127002,0.29163 -0.183445,0.45156 -0.04703,0.15052 -0.08937,0.31045 -0.127,0.47978 h -0.112888 c -0.06585,-0.1223 -0.155224,-0.2446 -0.268111,-0.36689 -0.112889,-0.13171 -0.249296,-0.2493 -0.409222,-0.35278 -0.150519,-0.11289 -0.319852,-0.20226 -0.508,-0.26811 -0.188148,-0.0753 -0.395111,-0.11289 -0.620888,-0.11289 -0.423333,0 -0.790222,0.08 -1.100666,0.23989 -0.301036,0.15052 -0.550333,0.36219 -0.747888,0.635 -0.188148,0.27281 -0.329259,0.59737 -0.423333,0.97366 -0.08467,0.36689 -0.127,0.76671 -0.127,1.19945 0,0.96896 0.206963,1.70274 0.620888,2.20133 0.413926,0.48919 1.020704,0.73378 1.820332,0.73378 0.188148,0 0.381,-0.0235 0.578555,-0.0706 0.197555,-0.0565 0.390407,-0.12702 0.578555,-0.21167 0.188148,-0.0941 0.362185,-0.20226 0.522111,-0.32455 0.169333,-0.1223 0.315148,-0.254 0.437444,-0.39511 l 0.07056,0.0423 c -0.04704,0.22578 -0.07526,0.45626 -0.08467,0.69145 -0.282222,0.22577 -0.635,0.41862 -1.058332,0.57855 -0.413926,0.15993 -0.846667,0.23989 -1.298222,0.23989 -0.404518,0 -0.81374,-0.0564 -1.227665,-0.16933 -0.404518,-0.1223 -0.771408,-0.31986 -1.100666,-0.59267 -0.329259,-0.28222 -0.597371,-0.6444 -0.804333,-1.08655 -0.197555,-0.44215 -0.296333,-0.98308 -0.296333,-1.62278 z"
             id="path33453" />
        </g>
        <g
           id="path33402"
           style="fill:#ffffff;fill-opacity:0.97872299;stroke-width:0;stroke-dasharray:none">
          <path
             style="color:#000000;-inkscape-font-specification:'Optima, Normal';fill:#ffffff;fill-opacity:0.97872299;stroke:none;stroke-width:0;stroke-linecap:butt;stroke-dasharray:none"
             d="m 49.264846,251.13845 q -0.522111,0 -0.888999,0.23989 -0.352778,0.23989 -0.592666,0.60678 -0.225778,0.35277 -0.352778,0.79022 -0.112889,0.42333 -0.141111,0.80433 0.437444,0.0141 0.90311,0.0282 0.479778,0.0141 0.931333,0.0141 0.465666,0 0.945444,-0.0141 0.479777,-0.0141 0.931332,-0.0282 0,-0.381 -0.07056,-0.80433 -0.05644,-0.42334 -0.254,-0.79022 -0.183444,-0.36689 -0.522111,-0.60678 -0.338666,-0.23989 -0.888999,-0.23989 z m -3.259664,3.25966 q 0,-1.73566 0.818444,-2.72344 0.832555,-0.98778 2.412998,-0.98778 0.747888,0 1.28411,0.23989 0.550333,0.22578 0.917221,0.62089 0.366889,0.381 0.536222,0.90311 0.183445,0.52211 0.183445,1.11478 0,0.14111 -0.01411,0.28222 0,0.127 -0.01411,0.26811 -0.761999,-0.0141 -1.509887,-0.0282 -0.747889,-0.0141 -1.509888,-0.0141 -0.465666,0 -0.931333,0.0141 -0.451555,0.0141 -0.917221,0.0282 -0.01411,0.0706 -0.01411,0.21167 v 0.18344 q 0,0.55034 0.155222,1.03011 0.169333,0.47978 0.479777,0.83256 0.310444,0.33866 0.762,0.55033 0.451555,0.19756 1.044221,0.19756 0.282222,0 0.578555,-0.0706 0.296333,-0.0847 0.578555,-0.21167 0.282222,-0.14111 0.522111,-0.32455 0.254,-0.18345 0.437444,-0.39511 l 0.07056,0.0423 -0.08467,0.69145 q -0.423333,0.33866 -1.058333,0.57855 -0.620888,0.23989 -1.298221,0.23989 -0.761999,0 -1.396999,-0.22578 -0.620888,-0.23989 -1.086554,-0.67733 -0.451556,-0.45156 -0.705555,-1.05833 -0.239889,-0.60678 -0.239889,-1.31234 z"
             id="path33457" />
          <path
             style="color:#000000;-inkscape-font-specification:'Optima, Normal';fill:#ffffff;fill-opacity:0.97872299;stroke:none;stroke-width:0;stroke-linecap:butt;stroke-dasharray:none"
             d="m 49.264846,251.13845 c -0.348074,0 -0.644407,0.08 -0.888999,0.23989 -0.235185,0.15993 -0.432741,0.36219 -0.592666,0.60678 -0.150519,0.23518 -0.268111,0.49859 -0.352778,0.79022 -0.07526,0.28222 -0.122296,0.55033 -0.141111,0.80433 0.291629,0.009 0.592666,0.0188 0.90311,0.0282 0.319852,0.009 0.630297,0.0141 0.931333,0.0141 0.310444,0 0.625592,-0.005 0.945444,-0.0141 0.319851,-0.009 0.630296,-0.0188 0.931332,-0.0282 0,-0.254 -0.02352,-0.52211 -0.07056,-0.80433 -0.03763,-0.28223 -0.122293,-0.54563 -0.254,-0.79022 -0.122296,-0.24459 -0.296333,-0.44685 -0.522111,-0.60678 -0.225777,-0.15993 -0.522111,-0.23989 -0.888999,-0.23989 z m -3.259664,3.25966 c 0,-1.15711 0.272815,-2.06492 0.818444,-2.72344 0.555036,-0.65852 1.35937,-0.98778 2.412998,-0.98778 0.498592,0 0.926629,0.08 1.28411,0.23989 0.366888,0.15052 0.672629,0.35748 0.917221,0.62089 0.244592,0.254 0.423333,0.55504 0.536222,0.90311 0.122297,0.34807 0.183445,0.71967 0.183445,1.11478 0,0.0941 -0.0047,0.18815 -0.01411,0.28222 0,0.0847 -0.0047,0.17404 -0.01411,0.26811 -0.507999,-0.009 -1.011295,-0.0188 -1.509887,-0.0282 -0.498592,-0.009 -1.001889,-0.0141 -1.509888,-0.0141 -0.310444,0 -0.620889,0.005 -0.931333,0.0141 -0.301036,0.009 -0.606777,0.0188 -0.917221,0.0282 -0.0094,0.0471 -0.01411,0.11762 -0.01411,0.21167 v 0.18344 c 0,0.36689 0.05174,0.71026 0.155222,1.03011 0.112889,0.31985 0.272815,0.59737 0.479777,0.83256 0.206962,0.22577 0.460963,0.40922 0.762,0.55033 0.301036,0.13171 0.649111,0.19756 1.044221,0.19756 0.188148,0 0.381,-0.0235 0.578555,-0.0706 0.197555,-0.0565 0.390407,-0.12702 0.578555,-0.21167 0.188148,-0.0941 0.362185,-0.20226 0.522111,-0.32455 0.169333,-0.1223 0.315148,-0.254 0.437444,-0.39511 l 0.07056,0.0423 -0.08467,0.69145 c -0.282222,0.22577 -0.635,0.41862 -1.058333,0.57855 -0.413925,0.15993 -0.846666,0.23989 -1.298221,0.23989 -0.507999,0 -0.973666,-0.0753 -1.396999,-0.22578 -0.413925,-0.15993 -0.77611,-0.3857 -1.086554,-0.67733 -0.301037,-0.30104 -0.536223,-0.65382 -0.705555,-1.05833 -0.159926,-0.40452 -0.239889,-0.84197 -0.239889,-1.31234 z"
             id="path33459" />
        </g>
      </g>
      <g
         id="g31910"
         transform="matrix(1,0,0,0.86740415,0,33.685356)"
         style="fill:#ffffff;fill-opacity:0.97872299;stroke-width:0;stroke-dasharray:none">
        <path
           style="color:#000000;fill:#ffffff;fill-opacity:0.97872299;stroke-width:0;stroke-linecap:round;stroke-miterlimit:20.5;stroke-dasharray:none"
           d="m 7.7109375,240.49609 v 0.26758 24.62891 H 22.753906 v 2.20312 h 17.119141 v -2.20312 h 15.042969 v -24.89649 z m 0.5371094,0.53711 H 54.378906 v 23.82422 H 39.335937 v 2.20117 H 23.291016 v -2.20117 H 8.2480469 Z"
           id="path31902" />
        <path
           style="color:#000000;fill:#ffffff;fill-opacity:0.97872299;stroke-width:0;stroke-linecap:round;stroke-miterlimit:20.5;stroke-dasharray:none"
           d="m 22.753906,262.80273 v 0.26758 4.52539 h 17.119141 v -4.79297 z m 0.53711,0.53711 h 16.044921 v 3.71875 H 23.291016 Z"
           id="rect31904" />
        <g
           aria-label="africa"
           id="text31908"
           style="font-size:3.52778px;font-family:Copperplate;-inkscape-font-specification:'Copperplate, Normal';letter-spacing:0.423333px;word-spacing:0px;fill:#ffffff;fill-opacity:0.97872299;stroke:#000000;stroke-width:0;stroke-linecap:round;stroke-miterlimit:20.5;stroke-dasharray:none">
          <g
             id="path33406"
             style="fill:#ffffff;fill-opacity:0.97872299;stroke-width:0;stroke-dasharray:none">
            <path
               style="color:#000000;-inkscape-font-specification:'Copperplate, Normal';fill:#ffffff;fill-opacity:0.97872299;stroke:none;stroke-width:0;stroke-linecap:butt;stroke-dasharray:none"
               d="m 25.898525,265.35202 -0.28575,-0.59267 -0.250473,0.59267 z m -1.178279,0.58561 q 0.04233,-0.007 0.06703,-0.0388 0.02822,-0.0353 0.04233,-0.0635 l 0.525639,-1.14653 q 0.02117,-0.0494 0.03175,-0.0776 0.01411,-0.0317 0.01411,-0.06 0,-0.0212 -0.01058,-0.0247 -0.0071,-0.007 -0.01764,-0.0141 v -0.0635 h 0.532695 v 0.0635 q -0.01058,0.007 -0.0247,0.0106 -0.01058,0.004 -0.01058,0.0282 0,0.0212 0.01411,0.0529 0.01764,0.0282 0.03528,0.067 l 0.5715,1.19944 q 0.01764,0.0317 0.03881,0.0459 0.02117,0.0141 0.04586,0.0212 v 0.0635 h -0.500945 v -0.0529 q 0.01764,0 0.03528,-0.0106 0.02117,-0.0106 0.02117,-0.0388 0,-0.0212 -0.0071,-0.0388 -0.0071,-0.0176 -0.01764,-0.0459 l -0.09525,-0.20109 H 25.25643 l -0.09878,0.1905 q -0.01411,0.0282 -0.02469,0.0529 -0.0071,0.0212 -0.0071,0.0388 0,0.0282 0.01764,0.0353 0.01764,0.007 0.04939,0.007 v 0.0635 h -0.472723 z"
               id="path33471" />
            <path
               style="color:#000000;-inkscape-font-specification:'Copperplate, Normal';fill:#ffffff;fill-opacity:0.97872299;stroke:none;stroke-width:0;stroke-linecap:butt;stroke-dasharray:none"
               d="m 25.898525,265.35202 -0.28575,-0.59267 -0.250473,0.59267 z m -1.178279,0.58561 c 0.02822,-0.005 0.05056,-0.0176 0.06703,-0.0388 0.01881,-0.0235 0.03292,-0.0447 0.04233,-0.0635 l 0.525639,-1.14653 c 0.01411,-0.0329 0.0247,-0.0588 0.03175,-0.0776 0.0094,-0.0211 0.01411,-0.0411 0.01411,-0.06 0,-0.0141 -0.0035,-0.0224 -0.01058,-0.0247 -0.0047,-0.005 -0.01061,-0.009 -0.01764,-0.0141 v -0.0635 h 0.532695 v 0.0635 c -0.0071,0.005 -0.01529,0.008 -0.0247,0.0106 -0.0071,0.003 -0.01058,0.0121 -0.01058,0.0282 0,0.0141 0.0047,0.0318 0.01411,0.0529 0.01176,0.0188 0.02352,0.0411 0.03528,0.067 l 0.5715,1.19944 c 0.01176,0.0211 0.0247,0.0364 0.03881,0.0459 0.01411,0.009 0.0294,0.0165 0.04586,0.0212 v 0.0635 h -0.500945 v -0.0529 c 0.01176,0 0.02352,-0.004 0.03528,-0.0106 0.01411,-0.007 0.02117,-0.02 0.02117,-0.0388 0,-0.0141 -0.0024,-0.0271 -0.0071,-0.0388 -0.0047,-0.0117 -0.01061,-0.027 -0.01764,-0.0459 l -0.09525,-0.20109 H 25.25643 l -0.09878,0.1905 c -0.0094,0.0188 -0.01764,0.0364 -0.02469,0.0529 -0.0047,0.0141 -0.0071,0.0271 -0.0071,0.0388 0,0.0188 0.0059,0.0306 0.01764,0.0353 0.01176,0.005 0.02822,0.007 0.04939,0.007 v 0.0635 h -0.472723 z"
               id="path33473" />
          </g>
          <g
             id="path33408"
             style="fill:#ffffff;fill-opacity:0.97872299;stroke-width:0;stroke-dasharray:none">
            <path
               style="color:#000000;-inkscape-font-specification:'Copperplate, Normal';fill:#ffffff;fill-opacity:0.97872299;stroke:none;stroke-width:0;stroke-linecap:butt;stroke-dasharray:none"
               d="m 28.794831,264.75935 q 0,-0.0176 -0.02469,-0.0317 -0.02469,-0.0176 -0.08467,-0.0176 h -0.956029 v 0.37395 h 0.62089 q 0.05997,0 0.07408,-0.0106 0.01411,-0.0141 0.01764,-0.0423 h 0.0635 v 0.37042 h -0.0635 q -0.0035,-0.0282 -0.01764,-0.0423 -0.01411,-0.0141 -0.07408,-0.0141 h -0.62089 v 0.53975 q 0,0.0282 0.02469,0.0423 0.02469,0.0106 0.05644,0.0106 v 0.0635 h -0.486833 v -0.0635 q 0.06703,0 0.06703,-0.0529 v -1.31939 q 0,-0.0529 -0.07408,-0.0529 v -0.0635 h 1.368779 q 0.05997,0 0.08467,-0.0176 0.02469,-0.0176 0.02469,-0.0459 h 0.0635 v 0.37394 z"
               id="path33477" />
            <path
               style="color:#000000;-inkscape-font-specification:'Copperplate, Normal';fill:#ffffff;fill-opacity:0.97872299;stroke:none;stroke-width:0;stroke-linecap:butt;stroke-dasharray:none"
               d="m 28.794831,264.75935 c 0,-0.0117 -0.0082,-0.0223 -0.02469,-0.0317 -0.01646,-0.0117 -0.04468,-0.0176 -0.08467,-0.0176 h -0.956029 v 0.37395 h 0.62089 c 0.03998,0 0.06467,-0.004 0.07408,-0.0106 0.0094,-0.009 0.01529,-0.0235 0.01764,-0.0423 h 0.0635 v 0.37042 h -0.0635 c -0.0023,-0.0188 -0.0082,-0.0329 -0.01764,-0.0423 -0.0094,-0.009 -0.0341,-0.0141 -0.07408,-0.0141 h -0.62089 v 0.53975 c 0,0.0188 0.0082,0.0329 0.02469,0.0423 0.01646,0.007 0.03527,0.0106 0.05644,0.0106 v 0.0635 h -0.486833 v -0.0635 c 0.04469,0 0.06703,-0.0176 0.06703,-0.0529 v -1.31939 c 0,-0.0353 -0.02469,-0.0529 -0.07408,-0.0529 v -0.0635 h 1.368779 c 0.03998,0 0.0682,-0.006 0.08467,-0.0176 0.01646,-0.0117 0.02469,-0.027 0.02469,-0.0459 h 0.0635 v 0.37394 z"
               id="path33479" />
          </g>
          <g
             id="path33410"
             style="fill:#ffffff;fill-opacity:0.97872299;stroke-width:0;stroke-dasharray:none">
            <path
               style="color:#000000;-inkscape-font-specification:'Copperplate, Normal';fill:#ffffff;fill-opacity:0.97872299;stroke:none;stroke-width:0;stroke-linecap:butt;stroke-dasharray:none"
               d="m 30.678664,265.11918 q 0.345722,0 0.345722,-0.21872 0,-0.0882 -0.08467,-0.13758 -0.08114,-0.0529 -0.261056,-0.0529 h -0.557389 v 0.40922 z m 0.0071,-0.67027 q 0.313973,0 0.490362,0.10583 0.176389,0.1023 0.176389,0.35278 0,0.0953 -0.03528,0.16933 -0.03528,0.0741 -0.09525,0.13053 -0.05644,0.0529 -0.127,0.0882 -0.07056,0.0317 -0.144639,0.0494 l 0.345722,0.50447 q 0.02822,0.0388 0.05997,0.06 0.03528,0.0176 0.07408,0.0282 v 0.0635 h -0.53975 v -0.0635 q 0.04586,0 0.04586,-0.0317 0,-0.0353 -0.05292,-0.10936 l -0.278694,-0.41628 h -0.490362 v 0.50447 q 0,0.0282 0.02117,0.0423 0.02469,0.0106 0.04586,0.0106 v 0.0635 h -0.469195 v -0.0635 q 0.0635,0 0.0635,-0.0529 v -1.31939 q 0,-0.0529 -0.0635,-0.0529 v -0.0635 z"
               id="path33483" />
            <path
               style="color:#000000;-inkscape-font-specification:'Copperplate, Normal';fill:#ffffff;fill-opacity:0.97872299;stroke:none;stroke-width:0;stroke-linecap:butt;stroke-dasharray:none"
               d="m 30.678664,265.11918 c 0.230481,0 0.345722,-0.0729 0.345722,-0.21872 0,-0.0588 -0.02822,-0.10466 -0.08467,-0.13758 -0.05409,-0.0353 -0.141112,-0.0529 -0.261056,-0.0529 h -0.557389 v 0.40922 z m 0.0071,-0.67027 c 0.209315,0 0.372769,0.0353 0.490362,0.10583 0.117593,0.0682 0.176389,0.18579 0.176389,0.35278 0,0.0635 -0.01176,0.11998 -0.03528,0.16933 -0.02352,0.0494 -0.05527,0.0929 -0.09525,0.13053 -0.03763,0.0353 -0.07996,0.0647 -0.127,0.0882 -0.04704,0.0211 -0.09525,0.0376 -0.144639,0.0494 l 0.345722,0.50447 c 0.01881,0.0259 0.0388,0.0459 0.05997,0.06 0.02352,0.0117 0.04821,0.0211 0.07408,0.0282 v 0.0635 h -0.53975 v -0.0635 c 0.03057,0 0.04586,-0.0106 0.04586,-0.0317 0,-0.0235 -0.01764,-0.06 -0.05292,-0.10936 l -0.278694,-0.41628 h -0.490362 v 0.50447 c 0,0.0188 0.0071,0.0329 0.02117,0.0423 0.01646,0.007 0.03175,0.0106 0.04586,0.0106 v 0.0635 h -0.469195 v -0.0635 c 0.04233,0 0.0635,-0.0176 0.0635,-0.0529 v -1.31939 c 0,-0.0353 -0.02117,-0.0529 -0.0635,-0.0529 v -0.0635 z"
               id="path33485" />
          </g>
          <g
             id="path33412"
             style="fill:#ffffff;fill-opacity:0.97872299;stroke-width:0;stroke-dasharray:none">
            <path
               style="color:#000000;-inkscape-font-specification:'Copperplate, Normal';fill:#ffffff;fill-opacity:0.97872299;stroke:none;stroke-width:0;stroke-linecap:butt;stroke-dasharray:none"
               d="m 32.333186,265.93763 q 0.05644,0 0.07761,-0.0106 0.02117,-0.0141 0.02117,-0.0423 v -1.31939 q 0,-0.0282 -0.02117,-0.0388 -0.02117,-0.0141 -0.07761,-0.0141 v -0.0635 h 0.536222 v 0.0635 q -0.09878,0 -0.09878,0.0529 v 1.31939 q 0,0.0529 0.09878,0.0529 v 0.0635 h -0.536222 z"
               id="path33489" />
            <path
               style="color:#000000;-inkscape-font-specification:'Copperplate, Normal';fill:#ffffff;fill-opacity:0.97872299;stroke:none;stroke-width:0;stroke-linecap:butt;stroke-dasharray:none"
               d="m 32.333186,265.93763 c 0.03763,0 0.0635,-0.004 0.07761,-0.0106 0.01411,-0.009 0.02117,-0.0235 0.02117,-0.0423 v -1.31939 c 0,-0.0188 -0.0071,-0.0317 -0.02117,-0.0388 -0.01411,-0.009 -0.03998,-0.0141 -0.07761,-0.0141 v -0.0635 h 0.536222 v 0.0635 c -0.06585,0 -0.09878,0.0176 -0.09878,0.0529 v 1.31939 c 0,0.0353 0.03293,0.0529 0.09878,0.0529 v 0.0635 h -0.536222 z"
               id="path33491" />
          </g>
          <g
             id="path33414"
             style="fill:#ffffff;fill-opacity:0.97872299;stroke-width:0;stroke-dasharray:none">
            <path
               style="color:#000000;-inkscape-font-specification:'Copperplate, Normal';fill:#ffffff;fill-opacity:0.97872299;stroke:none;stroke-width:0;stroke-linecap:butt;stroke-dasharray:none"
               d="m 35.12718,264.89341 q 0,-0.007 -0.0035,-0.0141 0,-0.007 0,-0.0176 0,-0.0176 -0.03528,-0.0459 -0.03528,-0.0318 -0.102306,-0.06 -0.0635,-0.0282 -0.151694,-0.0459 -0.08819,-0.0212 -0.194028,-0.0212 -0.127,0 -0.232834,0.0353 -0.102305,0.0318 -0.179916,0.0988 -0.07761,0.067 -0.119945,0.16581 -0.04233,0.0988 -0.04233,0.22577 0,0.127 0.04586,0.22931 0.04939,0.0988 0.127,0.17286 0.07761,0.0706 0.176389,0.10936 0.09878,0.0353 0.201083,0.0353 0.09525,0 0.194028,-0.0247 0.09878,-0.0247 0.179917,-0.0565 0.08114,-0.0353 0.130528,-0.0741 0.05292,-0.0388 0.05292,-0.0706 v -0.0282 q 0,-0.0212 -0.0035,-0.0353 l 0.03881,-0.0353 0.261056,0.37395 -0.03528,0.0176 q -0.04233,-0.0176 -0.05997,-0.0176 -0.02822,0 -0.09172,0.0317 -0.0635,0.0317 -0.162278,0.0741 -0.09525,0.0388 -0.225778,0.067 -0.127,0.0282 -0.28575,0.0282 -0.162278,0 -0.321028,-0.0459 -0.15875,-0.0459 -0.282223,-0.14464 -0.123472,-0.1023 -0.201083,-0.25047 -0.07761,-0.15169 -0.07761,-0.34925 0,-0.19756 0.07761,-0.34572 0.07761,-0.14817 0.204611,-0.24695 0.127,-0.1023 0.289278,-0.15169 0.165806,-0.0494 0.338667,-0.0494 0.134056,0 0.243417,0.0247 0.112889,0.0247 0.197556,0.0564 0.08467,0.0318 0.141111,0.0564 0.05644,0.0247 0.08114,0.0247 0.01764,0 0.02822,-0.0106 0.01411,-0.0106 0.02822,-0.0176 l 0.04233,0.0247 -0.232834,0.33514 z"
               id="path33495" />
            <path
               style="color:#000000;-inkscape-font-specification:'Copperplate, Normal';fill:#ffffff;fill-opacity:0.97872299;stroke:none;stroke-width:0;stroke-linecap:butt;stroke-dasharray:none"
               d="m 35.12718,264.89341 c 0,-0.005 -0.0012,-0.009 -0.0035,-0.0141 v -0.0176 c 0,-0.0117 -0.01176,-0.027 -0.03528,-0.0459 -0.02352,-0.0212 -0.05762,-0.0412 -0.102306,-0.06 -0.04233,-0.0188 -0.0929,-0.0341 -0.151694,-0.0459 -0.05879,-0.0141 -0.123469,-0.0212 -0.194028,-0.0212 -0.08467,0 -0.162278,0.0118 -0.232834,0.0353 -0.0682,0.0212 -0.128175,0.0541 -0.179916,0.0988 -0.05174,0.0447 -0.09172,0.0999 -0.119945,0.16581 -0.02822,0.0659 -0.04233,0.14112 -0.04233,0.22577 0,0.0847 0.01529,0.1611 0.04586,0.22931 0.03293,0.0659 0.07526,0.12349 0.127,0.17286 0.05174,0.0471 0.110536,0.0835 0.176389,0.10936 0.06585,0.0235 0.132881,0.0353 0.201083,0.0353 0.0635,0 0.128176,-0.008 0.194028,-0.0247 0.06585,-0.0165 0.125826,-0.0353 0.179917,-0.0565 0.05409,-0.0235 0.0976,-0.0482 0.130528,-0.0741 0.03528,-0.0259 0.05292,-0.0494 0.05292,-0.0706 v -0.0282 c 0,-0.0141 -0.0012,-0.0259 -0.0035,-0.0353 l 0.03881,-0.0353 0.261056,0.37395 -0.03528,0.0176 c -0.02822,-0.0117 -0.04821,-0.0176 -0.05997,-0.0176 -0.01881,0 -0.04939,0.0106 -0.09172,0.0317 -0.04233,0.0211 -0.09643,0.0458 -0.162278,0.0741 -0.0635,0.0259 -0.138759,0.0482 -0.225778,0.067 -0.08467,0.0188 -0.179917,0.0282 -0.28575,0.0282 -0.108185,0 -0.215195,-0.0153 -0.321028,-0.0459 -0.105833,-0.0306 -0.199908,-0.0788 -0.282223,-0.14464 -0.08232,-0.0682 -0.149342,-0.15169 -0.201083,-0.25047 -0.05174,-0.10113 -0.07761,-0.21754 -0.07761,-0.34925 0,-0.13171 0.02587,-0.24695 0.07761,-0.34572 0.05174,-0.0988 0.119944,-0.1811 0.204611,-0.24695 0.08467,-0.0682 0.181093,-0.11876 0.289278,-0.15169 0.110537,-0.0329 0.223426,-0.0494 0.338667,-0.0494 0.08937,0 0.17051,0.008 0.243417,0.0247 0.07526,0.0165 0.141111,0.0353 0.197556,0.0564 0.05645,0.0212 0.103484,0.04 0.141111,0.0564 0.03763,0.0165 0.06467,0.0247 0.08114,0.0247 0.01176,0 0.02117,-0.004 0.02822,-0.0106 0.0094,-0.007 0.01881,-0.0129 0.02822,-0.0176 l 0.04233,0.0247 -0.232834,0.33514 z"
               id="path33497" />
          </g>
          <g
             id="path33416"
             style="fill:#ffffff;fill-opacity:0.97872299;stroke-width:0;stroke-dasharray:none">
            <path
               style="color:#000000;-inkscape-font-specification:'Copperplate, Normal';fill:#ffffff;fill-opacity:0.97872299;stroke:none;stroke-width:0;stroke-linecap:butt;stroke-dasharray:none"
               d="m 37.229736,265.35202 -0.28575,-0.59267 -0.250472,0.59267 z m -1.178278,0.58561 q 0.04233,-0.007 0.06703,-0.0388 0.02822,-0.0353 0.04233,-0.0635 l 0.525639,-1.14653 q 0.02117,-0.0494 0.03175,-0.0776 0.01411,-0.0317 0.01411,-0.06 0,-0.0212 -0.01058,-0.0247 -0.0071,-0.007 -0.01764,-0.0141 v -0.0635 h 0.532695 v 0.0635 q -0.01058,0.007 -0.0247,0.0106 -0.01058,0.004 -0.01058,0.0282 0,0.0212 0.01411,0.0529 0.01764,0.0282 0.03528,0.067 l 0.5715,1.19944 q 0.01764,0.0317 0.03881,0.0459 0.02117,0.0141 0.04586,0.0212 v 0.0635 h -0.500945 v -0.0529 q 0.01764,0 0.03528,-0.0106 0.02117,-0.0106 0.02117,-0.0388 0,-0.0212 -0.0071,-0.0388 -0.0071,-0.0176 -0.01764,-0.0459 l -0.09525,-0.20109 H 36.58768 l -0.09878,0.1905 q -0.01411,0.0282 -0.02469,0.0529 -0.0071,0.0212 -0.0071,0.0388 0,0.0282 0.01764,0.0353 0.01764,0.007 0.04939,0.007 v 0.0635 h -0.472722 z"
               id="path33501" />
            <path
               style="color:#000000;-inkscape-font-specification:'Copperplate, Normal';fill:#ffffff;fill-opacity:0.97872299;stroke:none;stroke-width:0;stroke-linecap:butt;stroke-dasharray:none"
               d="m 37.229736,265.35202 -0.28575,-0.59267 -0.250472,0.59267 z m -1.178278,0.58561 c 0.02822,-0.005 0.05056,-0.0176 0.06703,-0.0388 0.01881,-0.0235 0.03292,-0.0447 0.04233,-0.0635 l 0.525639,-1.14653 c 0.01411,-0.0329 0.0247,-0.0588 0.03175,-0.0776 0.0094,-0.0211 0.01411,-0.0411 0.01411,-0.06 0,-0.0141 -0.0035,-0.0224 -0.01058,-0.0247 -0.0047,-0.005 -0.01061,-0.009 -0.01764,-0.0141 v -0.0635 h 0.532695 v 0.0635 c -0.0071,0.005 -0.01529,0.008 -0.0247,0.0106 -0.0071,0.003 -0.01058,0.0121 -0.01058,0.0282 0,0.0141 0.0047,0.0318 0.01411,0.0529 0.01176,0.0188 0.02352,0.0411 0.03528,0.067 l 0.5715,1.19944 c 0.01176,0.0211 0.0247,0.0364 0.03881,0.0459 0.01411,0.009 0.0294,0.0165 0.04586,0.0212 v 0.0635 h -0.500945 v -0.0529 c 0.01176,0 0.02352,-0.004 0.03528,-0.0106 0.01411,-0.007 0.02117,-0.02 0.02117,-0.0388 0,-0.0141 -0.0024,-0.0271 -0.0071,-0.0388 -0.0047,-0.0117 -0.01061,-0.027 -0.01764,-0.0459 l -0.09525,-0.20109 H 36.58768 l -0.09878,0.1905 c -0.0094,0.0188 -0.01764,0.0364 -0.02469,0.0529 -0.0047,0.0141 -0.0071,0.0271 -0.0071,0.0388 0,0.0188 0.0059,0.0306 0.01764,0.0353 0.01176,0.005 0.02822,0.007 0.04939,0.007 v 0.0635 h -0.472722 z"
               id="path33503" />
          </g>
        </g>
      </g>
    </g>
  </g>
</svg>
